<svg width="400" height="20" viewBox="0 0 400 20" fill="none" xmlns="http://www.w3.org/2000/svg">
<path fill-rule="evenodd" clip-rule="evenodd" d="M20.2421 12.4339C18.2334 9.41989 14.0636 9.23529 11.8228 12.0612L8.41369 16.3605C6.72575 18.4892 3.72249 18.7706 1.70572 16.9889C-0.311047 15.2073 -0.577609 12.0373 1.11034 9.90859L4.51944 5.60926C10.7771 -2.28246 22.4221 -1.7669 28.0317 6.65018L28.2035 6.908C30.2176 9.93013 34.4517 9.96076 36.5048 6.96805C42.3639 -1.57225 54.4249 -1.52059 60.2381 7.03416C62.2474 9.99118 66.5121 10.0249 68.5858 7.0022C74.4087 -1.48534 86.4741 -1.68992 92.4294 6.82838L92.7324 7.26179C94.7507 10.1486 98.8555 10.0995 100.811 7.16502C106.568 -1.47244 118.669 -1.46867 124.475 7.07558C126.474 10.0167 130.666 10.0208 132.674 7.06691C138.472 -1.46638 150.564 -1.52073 156.359 7.09032C158.306 9.98336 162.507 10.0415 164.56 7.04916C170.403 -1.46805 182.545 -1.53652 188.416 7.02108C190.474 10.0202 194.695 9.97532 196.674 7.03417C202.439 -1.53177 214.461 -1.61818 220.335 6.86412L220.552 7.177C222.581 10.1059 226.732 10.0761 228.722 7.11828C234.512 -1.48551 246.604 -1.5014 252.426 7.06648C254.431 10.0178 258.621 10.0243 260.64 7.05255C266.446 -1.49135 278.528 -1.51011 284.316 7.09032C286.253 9.96925 290.467 10.0363 292.53 7.02989C298.345 -1.44688 310.475 -1.54674 316.306 7.03429C318.325 10.0066 322.499 9.97373 324.459 7.06213C330.251 -1.54536 342.333 -1.45665 348.115 7.0526C350.131 10.0196 354.373 10.0297 356.402 7.07249C362.298 -1.52089 374.487 -1.38354 380.302 7.17403C382.407 10.2722 386.718 10.3288 388.85 7.44485L391.484 3.8815C393.101 1.69292 396.094 1.30298 398.167 3.01056C400.241 4.71814 400.61 7.8766 398.992 10.0652L396.358 13.6285C390.225 21.9253 378.288 21.4583 372.563 13.0329C370.493 9.98717 366.155 9.99635 364.116 12.9684C358.274 21.4833 346.181 21.4543 340.376 12.9115C338.356 9.93913 334.182 9.97202 332.223 12.8836C326.43 21.4911 314.349 21.4024 308.567 12.8932C306.576 9.96439 302.299 9.93033 300.244 12.9258C294.458 21.3589 282.363 21.5474 276.551 12.9118C274.569 9.96552 270.394 9.9462 268.379 12.9114C262.574 21.4542 250.506 21.4886 244.687 12.9253C242.67 9.95679 238.485 9.96944 236.486 12.9398C230.731 21.4918 218.729 21.5781 212.864 13.1095L212.647 12.7967C210.609 9.85405 206.438 9.88401 204.439 12.8557C198.632 21.4842 186.531 21.4122 180.703 12.917C178.662 9.94187 174.342 9.92954 172.273 12.945C166.478 21.3923 154.397 21.5333 148.595 12.9118C146.619 9.97614 142.435 9.94994 140.413 12.9258C134.615 21.4584 122.543 21.4798 116.736 12.9344C114.726 9.9761 110.56 10.0085 108.601 12.9488C102.904 21.4961 90.9479 21.6394 85.0692 13.2306L84.7662 12.7972C82.6991 9.84044 78.4011 9.83489 76.2996 12.8981C70.4647 21.403 58.3486 21.5014 52.4991 12.893C50.4657 9.90063 46.2555 9.8948 44.2186 12.8639C38.331 21.4458 26.1896 21.3579 20.414 12.6917L20.2421 12.4339Z" fill="#F24822"/>
</svg>
